<svg xmlns="http://www.w3.org/2000/svg" xmlns:xlink="http://www.w3.org/1999/xlink" width="500" zoomAndPan="magnify" viewBox="0 0 375 374.999991" height="500" preserveAspectRatio="xMidYMid meet" version="1.0"><defs><clipPath id="967a0561ea"><path d="M 15 37.5 L 261 37.5 L 261 218 L 15 218 Z M 15 37.5 " clip-rule="nonzero"/></clipPath><clipPath id="2058c20728"><path d="M 74 281 L 134 281 L 134 335.25 L 74 335.25 Z M 74 281 " clip-rule="nonzero"/></clipPath><clipPath id="fd4b2ca339"><path d="M 149 281 L 210 281 L 210 335.25 L 149 335.25 Z M 149 281 " clip-rule="nonzero"/></clipPath></defs><path fill="#d5c1bc" d="M 248.363281 286.171875 C 277.765625 282.371094 312.347656 266.429688 334.542969 229.371094 C 356.742188 192.308594 357.621094 143.414062 336.773438 105.578125 C 331.121094 95.316406 323.761719 85.636719 313.726562 79.597656 C 303.695312 73.554688 290.632812 71.691406 280.183594 76.976562 C 263.953125 85.1875 259.59375 107.011719 263.347656 124.820312 C 267.101562 142.628906 276.75 158.695312 281.246094 176.332031 C 289.316406 207.992188 279.042969 242.644531 252.566406 258.804688 C 253.75 267.042969 252.792969 275.578125 248.363281 286.171875 Z M 248.363281 286.171875 " fill-opacity="1" fill-rule="nonzero"/><path fill="#d5c1bc" d="M 251.25 234.546875 C 247.382812 218.761719 239.332031 204.171875 229.515625 191.222656 C 220.835938 190.675781 212.078125 189.070312 203.453125 188.695312 C 185.363281 187.90625 167.234375 187.226562 149.058594 186.273438 C 130.003906 185.277344 111.257812 187.472656 92.332031 187.582031 C 85.101562 187.621094 78.292969 186.117188 70.988281 186.722656 C 65.886719 187.144531 61.046875 187.367188 56.113281 187.226562 C 45.65625 204.71875 37.378906 223.519531 31.539062 242.570312 C 28.078125 257.699219 29.972656 273.863281 36.015625 288.15625 C 40.402344 298.527344 47.238281 308.265625 57.011719 313.847656 C 62.257812 316.847656 68.128906 318.539062 73.9375 320.203125 C 77.421875 321.203125 80.945312 322.207031 84.566406 322.355469 C 88.1875 322.503906 91.972656 321.714844 95.484375 319.777344 C 98.003906 324.960938 102.050781 329.699219 107.5 331.570312 C 112.945312 333.4375 119.835938 331.664062 122.601562 326.609375 C 123.574219 324.832031 124.105469 322.652344 125.789062 321.519531 C 126.976562 320.722656 128.488281 320.636719 129.921875 320.578125 C 137.417969 320.265625 144.917969 319.957031 152.417969 319.644531 C 153.183594 319.613281 153.96875 319.585938 154.695312 319.828125 C 156.039062 320.277344 156.910156 321.542969 157.699219 322.722656 C 159.457031 325.355469 161.316406 327.980469 163.777344 329.964844 C 166.242188 331.953125 169.414062 333.253906 172.554688 332.84375 C 175.945312 332.398438 178.777344 330.070312 181.160156 327.609375 C 184.144531 324.519531 186.75 321.0625 189.144531 317.335938 C 189.070312 319.246094 190.882812 320.683594 192.644531 321.425781 C 199 324.089844 206.261719 322.046875 212.78125 319.804688 C 218.066406 317.988281 223.355469 316.03125 228.078125 313.042969 C 237.871094 306.847656 244.578125 296.507812 248.058594 285.472656 C 254.613281 269.472656 255.363281 251.34375 251.25 234.546875 Z M 251.25 234.546875 " fill-opacity="1" fill-rule="nonzero"/><path fill="#bba6a1" d="M 51.933594 240.585938 C 51.910156 240.585938 51.890625 240.585938 51.867188 240.585938 C 50.324219 240.546875 49.101562 239.265625 49.136719 237.722656 L 49.480469 223.355469 C 49.515625 221.808594 50.804688 220.6875 52.34375 220.621094 C 53.886719 220.660156 55.109375 221.941406 55.070312 223.484375 L 54.730469 237.851562 C 54.695312 239.375 53.449219 240.585938 51.933594 240.585938 Z M 51.933594 240.585938 " fill-opacity="1" fill-rule="nonzero"/><path fill="#bba6a1" d="M 62.871094 266.585938 C 61.359375 266.585938 60.113281 265.375 60.078125 263.851562 L 59.738281 249.144531 C 59.699219 247.597656 60.925781 246.3125 62.46875 246.277344 C 63.988281 246.234375 65.292969 247.46875 65.328125 249.011719 L 65.667969 263.722656 C 65.707031 265.269531 64.484375 266.550781 62.9375 266.585938 C 62.917969 266.585938 62.894531 266.585938 62.871094 266.585938 Z M 62.871094 266.585938 " fill-opacity="1" fill-rule="nonzero"/><path fill="#bba6a1" d="M 45.09375 281.980469 C 43.613281 281.980469 42.375 280.816406 42.300781 279.316406 L 41.617188 265.292969 C 41.542969 263.75 42.730469 262.4375 44.273438 262.359375 C 45.796875 262.25 47.128906 263.472656 47.207031 265.019531 L 47.890625 279.046875 C 47.964844 280.589844 46.777344 281.902344 45.234375 281.976562 C 45.1875 281.980469 45.140625 281.980469 45.09375 281.980469 Z M 45.09375 281.980469 " fill-opacity="1" fill-rule="nonzero"/><path fill="#bba6a1" d="M 61.84375 303.53125 C 60.480469 303.53125 59.285156 302.53125 59.082031 301.140625 L 57.371094 289.511719 C 57.148438 287.980469 58.203125 286.558594 59.730469 286.335938 C 61.25 286.085938 62.679688 287.164062 62.90625 288.695312 L 64.617188 300.328125 C 64.839844 301.859375 63.785156 303.277344 62.253906 303.503906 C 62.117188 303.523438 61.980469 303.53125 61.84375 303.53125 Z M 61.84375 303.53125 " fill-opacity="1" fill-rule="nonzero"/><path fill="#bba6a1" d="M 210.914062 266.242188 C 210.890625 266.242188 210.867188 266.242188 210.847656 266.242188 C 209.300781 266.207031 208.078125 264.921875 208.117188 263.378906 L 208.457031 248.667969 C 208.496094 247.121094 209.753906 245.851562 211.320312 245.9375 C 212.863281 245.976562 214.085938 247.257812 214.050781 248.800781 L 213.707031 263.511719 C 213.671875 265.03125 212.425781 266.242188 210.914062 266.242188 Z M 210.914062 266.242188 " fill-opacity="1" fill-rule="nonzero"/><path fill="#bba6a1" d="M 223.21875 238.191406 C 221.75 238.191406 220.515625 237.042969 220.429688 235.554688 L 219.746094 223.925781 C 219.652344 222.382812 220.832031 221.058594 222.371094 220.96875 C 223.890625 220.851562 225.234375 222.050781 225.328125 223.597656 L 226.011719 235.230469 C 226.101562 236.769531 224.925781 238.09375 223.382812 238.1875 C 223.328125 238.1875 223.273438 238.191406 223.21875 238.191406 Z M 223.21875 238.191406 " fill-opacity="1" fill-rule="nonzero"/><path fill="#bba6a1" d="M 232.792969 265.902344 C 231.28125 265.902344 230.039062 264.699219 229.996094 263.179688 L 229.65625 250.867188 C 229.613281 249.320312 230.828125 248.03125 232.375 247.988281 C 233.917969 248 235.203125 249.164062 235.246094 250.707031 L 235.589844 263.027344 C 235.628906 264.570312 234.414062 265.859375 232.871094 265.902344 C 232.84375 265.902344 232.816406 265.902344 232.792969 265.902344 Z M 232.792969 265.902344 " fill-opacity="1" fill-rule="nonzero"/><path fill="#bba6a1" d="M 223.222656 301.140625 C 223.089844 301.140625 222.953125 301.128906 222.816406 301.109375 C 221.289062 300.886719 220.230469 299.464844 220.453125 297.9375 L 223.1875 279.121094 C 223.410156 277.589844 224.835938 276.5 226.359375 276.753906 C 227.886719 276.976562 228.945312 278.398438 228.722656 279.925781 L 225.988281 298.742188 C 225.785156 300.136719 224.589844 301.140625 223.222656 301.140625 Z M 223.222656 301.140625 " fill-opacity="1" fill-rule="nonzero"/><path fill="#d5c1bc" d="M 53.136719 214.863281 C 39.664062 211.382812 28.640625 200.703125 23.152344 187.910156 C 17.660156 175.117188 17.34375 160.472656 20.578125 146.929688 C 23.644531 134.089844 29.742188 122.152344 37.085938 111.167969 C 37.835938 110.046875 37.953125 108.640625 37.398438 107.40625 C 30.894531 92.890625 26.90625 75.863281 24.328125 60.285156 C 23.523438 55.417969 23.03125 50.003906 25.824219 45.9375 C 28.074219 42.660156 32.101562 40.953125 36.0625 40.648438 C 40.023438 40.339844 43.972656 41.257812 47.804688 42.292969 C 58.539062 45.191406 76.8125 53.109375 86.847656 57.925781 C 87.542969 58.261719 88.308594 58.140625 89 57.800781 C 119.167969 42.953125 165.34375 42.746094 192.445312 58.902344 C 193.109375 59.296875 193.90625 59.359375 194.601562 59.027344 C 204.632812 54.207031 217.964844 45.191406 228.695312 42.292969 C 232.53125 41.257812 236.480469 40.339844 240.441406 40.648438 C 244.402344 40.953125 248.429688 42.660156 250.679688 45.9375 C 253.472656 50.003906 252.980469 55.417969 252.175781 60.285156 C 249.597656 75.863281 245.609375 92.890625 239.105469 107.40625 C 238.550781 108.640625 238.667969 110.046875 239.417969 111.167969 C 246.761719 122.152344 252.859375 134.089844 255.925781 146.929688 C 259.15625 160.472656 258.84375 175.117188 253.351562 187.910156 C 247.863281 200.703125 236.839844 211.382812 221.714844 216.785156 C 165.742188 222.648438 107.929688 229.011719 53.136719 214.863281 Z M 53.136719 214.863281 " fill-opacity="1" fill-rule="nonzero"/><path fill="#bba6a1" d="M 54.460938 89.378906 C 52.332031 90.777344 49.441406 89.789062 48.613281 87.375 L 43.304688 71.859375 C 42.332031 69.015625 41.46875 65.53125 43.46875 63.285156 C 45.53125 60.960938 49.261719 61.535156 52.222656 62.472656 C 57.886719 64.269531 63.34375 66.710938 68.460938 69.726562 C 70.503906 70.933594 71.042969 73.65625 69.578125 75.523438 C 65.421875 80.820312 60.382812 85.484375 54.460938 89.378906 Z M 54.460938 89.378906 " fill-opacity="1" fill-rule="nonzero"/><path fill="#bba6a1" d="M 222.042969 89.378906 C 224.171875 90.777344 227.0625 89.789062 227.890625 87.375 L 233.199219 71.859375 C 234.171875 69.015625 235.035156 65.53125 233.035156 63.285156 C 230.972656 60.960938 227.242188 61.535156 224.28125 62.472656 C 218.617188 64.269531 213.160156 66.710938 208.042969 69.726562 C 205.996094 70.933594 205.460938 73.65625 206.925781 75.523438 C 211.078125 80.820312 216.121094 85.484375 222.042969 89.378906 Z M 222.042969 89.378906 " fill-opacity="1" fill-rule="nonzero"/><path fill="#f9b5a0" d="M 64.253906 162.488281 C 64.253906 163.109375 64.195312 163.726562 64.074219 164.335938 C 63.949219 164.949219 63.769531 165.542969 63.53125 166.117188 C 63.296875 166.691406 63.003906 167.238281 62.65625 167.753906 C 62.3125 168.273438 61.917969 168.753906 61.480469 169.191406 C 61.039062 169.632812 60.558594 170.027344 60.042969 170.371094 C 59.527344 170.71875 58.980469 171.007812 58.40625 171.246094 C 57.832031 171.484375 57.238281 171.664062 56.628906 171.789062 C 56.015625 171.910156 55.402344 171.96875 54.777344 171.96875 C 54.15625 171.96875 53.539062 171.910156 52.929688 171.789062 C 52.320312 171.664062 51.726562 171.484375 51.152344 171.246094 C 50.578125 171.007812 50.03125 170.71875 49.515625 170.371094 C 48.996094 170.027344 48.519531 169.632812 48.078125 169.191406 C 47.636719 168.753906 47.246094 168.273438 46.898438 167.753906 C 46.554688 167.238281 46.261719 166.691406 46.023438 166.117188 C 45.785156 165.542969 45.605469 164.949219 45.484375 164.335938 C 45.363281 163.726562 45.304688 163.109375 45.304688 162.488281 C 45.304688 161.867188 45.363281 161.25 45.484375 160.636719 C 45.605469 160.027344 45.785156 159.433594 46.023438 158.859375 C 46.261719 158.285156 46.554688 157.738281 46.898438 157.21875 C 47.246094 156.703125 47.636719 156.222656 48.078125 155.785156 C 48.519531 155.34375 48.996094 154.949219 49.515625 154.605469 C 50.03125 154.257812 50.578125 153.964844 51.152344 153.726562 C 51.726562 153.488281 52.320312 153.308594 52.929688 153.1875 C 53.539062 153.066406 54.15625 153.007812 54.777344 153.007812 C 55.402344 153.007812 56.015625 153.066406 56.628906 153.1875 C 57.238281 153.308594 57.832031 153.488281 58.40625 153.726562 C 58.980469 153.964844 59.527344 154.257812 60.042969 154.605469 C 60.558594 154.949219 61.039062 155.34375 61.480469 155.785156 C 61.917969 156.222656 62.3125 156.703125 62.65625 157.21875 C 63.003906 157.738281 63.296875 158.285156 63.53125 158.859375 C 63.769531 159.433594 63.949219 160.027344 64.074219 160.636719 C 64.195312 161.25 64.253906 161.867188 64.253906 162.488281 Z M 64.253906 162.488281 " fill-opacity="1" fill-rule="nonzero"/><path fill="#f9b5a0" d="M 231.199219 162.488281 C 231.199219 163.109375 231.140625 163.726562 231.019531 164.335938 C 230.898438 164.949219 230.71875 165.542969 230.480469 166.117188 C 230.242188 166.691406 229.949219 167.238281 229.601562 167.753906 C 229.257812 168.273438 228.863281 168.753906 228.425781 169.191406 C 227.984375 169.632812 227.507812 170.027344 226.988281 170.371094 C 226.472656 170.71875 225.925781 171.007812 225.351562 171.246094 C 224.777344 171.484375 224.183594 171.664062 223.574219 171.789062 C 222.964844 171.910156 222.347656 171.96875 221.726562 171.96875 C 221.101562 171.96875 220.484375 171.910156 219.875 171.789062 C 219.265625 171.664062 218.671875 171.484375 218.097656 171.246094 C 217.523438 171.007812 216.976562 170.71875 216.460938 170.371094 C 215.941406 170.027344 215.464844 169.632812 215.023438 169.191406 C 214.585938 168.753906 214.191406 168.273438 213.847656 167.753906 C 213.5 167.238281 213.207031 166.691406 212.96875 166.117188 C 212.730469 165.542969 212.550781 164.949219 212.429688 164.335938 C 212.308594 163.726562 212.25 163.109375 212.25 162.488281 C 212.25 161.867188 212.308594 161.25 212.429688 160.636719 C 212.550781 160.027344 212.730469 159.433594 212.96875 158.859375 C 213.207031 158.285156 213.5 157.738281 213.847656 157.21875 C 214.191406 156.703125 214.585938 156.222656 215.023438 155.785156 C 215.464844 155.34375 215.941406 154.949219 216.460938 154.605469 C 216.976562 154.257812 217.523438 153.964844 218.097656 153.726562 C 218.671875 153.488281 219.265625 153.308594 219.875 153.1875 C 220.484375 153.066406 221.101562 153.007812 221.726562 153.007812 C 222.347656 153.007812 222.964844 153.066406 223.574219 153.1875 C 224.183594 153.308594 224.777344 153.488281 225.351562 153.726562 C 225.925781 153.964844 226.472656 154.257812 226.988281 154.605469 C 227.507812 154.949219 227.984375 155.34375 228.425781 155.785156 C 228.863281 156.222656 229.257812 156.703125 229.601562 157.21875 C 229.949219 157.738281 230.242188 158.285156 230.480469 158.859375 C 230.71875 159.433594 230.898438 160.027344 231.019531 160.636719 C 231.140625 161.25 231.199219 161.867188 231.199219 162.488281 Z M 231.199219 162.488281 " fill-opacity="1" fill-rule="nonzero"/><path fill="#473a39" d="M 81.792969 142.4375 C 77.960938 144.035156 73.898438 145.820312 71.632812 149.300781 C 70.839844 150.515625 70.300781 152.035156 70.765625 153.410156 C 71.246094 154.84375 72.734375 155.753906 74.234375 155.980469 C 75.730469 156.207031 77.253906 155.875 78.726562 155.519531 C 81.941406 154.742188 85.140625 153.851562 88.207031 152.605469 C 89.976562 151.890625 91.746094 151.023438 93.039062 149.617188 C 94.332031 148.210938 95.070312 146.160156 94.472656 144.34375 C 93.8125 142.355469 91.714844 141.128906 89.640625 140.875 C 87.5625 140.621094 85.394531 140.9375 81.792969 142.4375 Z M 81.792969 142.4375 " fill-opacity="1" fill-rule="nonzero"/><path fill="#473a39" d="M 195.75 142.441406 C 199.550781 144.113281 203.574219 145.972656 205.773438 149.496094 C 206.542969 150.726562 207.050781 152.257812 206.5625 153.621094 C 206.050781 155.050781 204.546875 155.929688 203.042969 156.128906 C 201.542969 156.324219 200.027344 155.960938 198.5625 155.578125 C 195.359375 154.738281 192.179688 153.785156 189.136719 152.484375 C 187.382812 151.730469 185.632812 150.832031 184.363281 149.402344 C 183.097656 147.96875 182.402344 145.902344 183.035156 144.101562 C 183.730469 142.125 185.851562 140.941406 187.933594 140.726562 C 190.015625 140.511719 192.175781 140.867188 195.75 142.441406 Z M 195.75 142.441406 " fill-opacity="1" fill-rule="nonzero"/><path fill="#bba6a1" d="M 112.757812 78.992188 C 111.34375 78.992188 110.128906 77.917969 109.980469 76.480469 L 108.699219 63.976562 C 108.542969 62.441406 109.660156 61.066406 111.195312 60.90625 C 112.726562 60.765625 114.105469 61.871094 114.261719 63.40625 L 115.542969 75.90625 C 115.703125 77.445312 114.582031 78.820312 113.046875 78.976562 C 112.949219 78.984375 112.855469 78.992188 112.757812 78.992188 Z M 112.757812 78.992188 " fill-opacity="1" fill-rule="nonzero"/><path fill="#bba6a1" d="M 143.703125 79.792969 C 142.207031 79.792969 140.964844 78.609375 140.910156 77.101562 L 140.269531 60.113281 C 140.210938 58.570312 141.414062 57.269531 142.957031 57.210938 C 144.550781 57.148438 145.800781 58.355469 145.859375 59.902344 L 146.5 76.890625 C 146.558594 78.4375 145.351562 79.734375 143.808594 79.792969 C 143.773438 79.792969 143.738281 79.792969 143.703125 79.792969 Z M 143.703125 79.792969 " fill-opacity="1" fill-rule="nonzero"/><path fill="#bba6a1" d="M 170.222656 82.683594 C 170.125 82.683594 170.027344 82.679688 169.929688 82.667969 C 168.394531 82.503906 167.277344 81.132812 167.4375 79.59375 C 168.035156 73.914062 168.136719 68.144531 167.75 62.441406 C 167.644531 60.902344 168.8125 59.566406 170.351562 59.460938 C 171.863281 59.421875 173.226562 60.519531 173.332031 62.066406 C 173.742188 68.085938 173.628906 74.179688 173 80.175781 C 172.851562 81.613281 171.636719 82.683594 170.222656 82.683594 Z M 170.222656 82.683594 " fill-opacity="1" fill-rule="nonzero"/><path fill="#bba6a1" d="M 131.480469 101.910156 C 130.09375 101.910156 128.886719 100.875 128.710938 99.457031 L 126.628906 82.792969 C 126.4375 81.257812 127.523438 79.859375 129.058594 79.667969 C 130.570312 79.492188 131.988281 80.566406 132.179688 82.097656 L 134.261719 98.765625 C 134.453125 100.296875 133.363281 101.699219 131.832031 101.886719 C 131.714844 101.902344 131.597656 101.910156 131.480469 101.910156 Z M 131.480469 101.910156 " fill-opacity="1" fill-rule="nonzero"/><path fill="#bba6a1" d="M 155.476562 102.714844 C 155.410156 102.714844 155.347656 102.710938 155.285156 102.707031 C 153.742188 102.605469 152.578125 101.269531 152.683594 99.726562 L 153.804688 83.0625 C 153.90625 81.519531 155.238281 80.414062 156.78125 80.457031 C 158.324219 80.558594 159.488281 81.894531 159.382812 83.4375 L 158.261719 100.105469 C 158.164062 101.582031 156.933594 102.714844 155.476562 102.714844 Z M 155.476562 102.714844 " fill-opacity="1" fill-rule="nonzero"/><path fill="#473a39" d="M 85.808594 324.15625 C 67.734375 324.15625 48.640625 314.933594 39.132812 300.648438 C 28.636719 284.886719 25.0625 263.257812 29.328125 241.316406 C 31.304688 231.125 34.824219 220.777344 40.089844 209.671875 C 40.75 208.273438 42.417969 207.683594 43.816406 208.34375 C 45.210938 209.003906 45.804688 210.675781 45.144531 212.070312 C 40.082031 222.746094 36.707031 232.664062 34.816406 242.382812 C 30.832031 262.894531 34.101562 283 43.785156 297.546875 C 53.96875 312.839844 76.476562 321.644531 95.03125 317.597656 C 96.539062 317.273438 98.03125 318.222656 98.359375 319.734375 C 98.6875 321.242188 97.734375 322.734375 96.222656 323.0625 C 92.84375 323.804688 89.347656 324.15625 85.808594 324.15625 Z M 85.808594 324.15625 " fill-opacity="1" fill-rule="nonzero"/><path fill="#473a39" d="M 197.472656 324.15625 C 193.933594 324.15625 190.4375 323.804688 187.054688 323.0625 C 185.546875 322.734375 184.589844 321.242188 184.921875 319.734375 C 185.25 318.222656 186.742188 317.253906 188.25 317.597656 C 206.792969 321.640625 229.308594 312.84375 239.492188 297.546875 C 249.175781 283 252.445312 262.894531 248.464844 242.382812 C 246.40625 231.804688 242.5 221.316406 236.15625 209.367188 C 235.433594 208.003906 235.949219 206.308594 237.316406 205.585938 C 238.675781 204.855469 240.375 205.375 241.097656 206.746094 C 247.707031 219.191406 251.789062 230.179688 253.953125 241.316406 C 258.21875 263.257812 254.644531 284.886719 244.148438 300.648438 C 234.640625 314.929688 215.542969 324.152344 197.472656 324.15625 Z M 197.472656 324.15625 " fill-opacity="1" fill-rule="nonzero"/><path fill="#473a39" d="M 128.625 323.4375 C 127.113281 323.4375 125.867188 322.226562 125.832031 320.703125 C 125.792969 319.160156 127.015625 317.878906 128.558594 317.839844 L 154.359375 317.222656 C 155.832031 317.101562 157.183594 318.410156 157.21875 319.957031 C 157.257812 321.5 156.035156 322.78125 154.492188 322.820312 L 128.695312 323.4375 C 128.671875 323.4375 128.648438 323.4375 128.625 323.4375 Z M 128.625 323.4375 " fill-opacity="1" fill-rule="nonzero"/><g clip-path="url(#967a0561ea)"><path fill="#473a39" d="M 223.363281 217.664062 C 222.117188 217.664062 220.984375 216.828125 220.65625 215.5625 C 220.269531 214.066406 221.171875 212.542969 222.664062 212.15625 C 234.625 209.066406 245.398438 199.351562 250.78125 186.804688 C 255.667969 175.425781 256.527344 161.492188 253.203125 147.578125 C 250.511719 136.316406 245.242188 124.914062 237.09375 112.726562 C 235.804688 110.796875 235.601562 108.378906 236.554688 106.261719 C 242.003906 94.097656 246.332031 78.472656 249.414062 59.828125 C 250.164062 55.3125 250.554688 50.695312 248.375 47.523438 C 246.808594 45.242188 243.761719 43.710938 240.222656 43.4375 C 236.613281 43.15625 232.910156 44.050781 229.425781 44.996094 C 222.628906 46.832031 214.660156 51.285156 206.953125 55.589844 C 202.996094 57.804688 199.253906 59.894531 195.808594 61.546875 C 194.292969 62.28125 192.5 62.195312 191.015625 61.308594 C 165.375 46.023438 120.167969 45.578125 90.234375 60.3125 C 88.683594 61.074219 87.050781 61.125 85.636719 60.449219 C 75.996094 55.820312 57.769531 47.882812 47.078125 44.996094 C 43.59375 44.050781 39.886719 43.15625 36.277344 43.4375 C 32.742188 43.710938 29.695312 45.242188 28.128906 47.523438 C 25.949219 50.695312 26.339844 55.3125 27.089844 59.828125 C 30.171875 78.472656 34.5 94.097656 39.953125 106.261719 C 40.902344 108.378906 40.699219 110.796875 39.410156 112.726562 C 31.261719 124.914062 25.988281 136.316406 23.300781 147.578125 C 19.976562 161.492188 20.835938 175.425781 25.722656 186.804688 C 31.105469 199.351562 41.878906 209.066406 53.835938 212.15625 C 55.332031 212.542969 56.230469 214.070312 55.84375 215.5625 C 55.457031 217.0625 53.941406 217.976562 52.4375 217.574219 C 38.636719 214.007812 26.726562 203.332031 20.582031 189.011719 C 15.222656 176.535156 14.257812 161.355469 17.859375 146.277344 C 20.707031 134.355469 26.234375 122.363281 34.761719 109.613281 C 34.976562 109.296875 35.007812 108.90625 34.847656 108.550781 C 29.199219 95.945312 24.730469 79.863281 21.570312 60.742188 C 20.632812 55.070312 20.21875 49.164062 23.519531 44.351562 C 26.070312 40.636719 30.5625 38.269531 35.847656 37.855469 C 40.347656 37.503906 44.757812 38.570312 48.535156 39.589844 C 59.488281 42.546875 77.886719 50.535156 87.785156 55.273438 C 119.765625 39.597656 166.136719 40.105469 193.664062 56.371094 C 196.878906 54.8125 200.453125 52.8125 204.226562 50.703125 C 212.226562 46.234375 220.503906 41.605469 227.96875 39.589844 C 231.746094 38.570312 236.15625 37.511719 240.65625 37.855469 C 245.941406 38.269531 250.433594 40.636719 252.984375 44.351562 C 256.285156 49.164062 255.871094 55.070312 254.933594 60.742188 C 251.769531 79.863281 247.304688 95.945312 241.65625 108.550781 C 241.496094 108.90625 241.527344 109.296875 241.742188 109.613281 C 250.269531 122.363281 255.796875 134.355469 258.644531 146.277344 C 262.246094 161.355469 261.277344 176.535156 255.921875 189.011719 C 249.777344 203.332031 237.867188 214.007812 224.0625 217.574219 C 223.828125 217.636719 223.59375 217.664062 223.363281 217.664062 Z M 223.363281 217.664062 " fill-opacity="1" fill-rule="nonzero"/></g><path fill="#473a39" d="M 151.777344 155.492188 C 149.644531 155.492188 147.511719 155.085938 145.53125 154.273438 C 142.863281 153.175781 140.511719 151.355469 138.738281 149.0625 C 136.96875 151.355469 134.617188 153.175781 131.949219 154.273438 C 127.488281 156.105469 122.273438 155.859375 118.007812 153.617188 C 116.636719 152.898438 116.113281 151.207031 116.832031 149.835938 C 117.550781 148.46875 119.242188 147.953125 120.605469 148.660156 C 123.386719 150.121094 126.914062 150.285156 129.824219 149.097656 C 132.394531 148.039062 134.527344 145.949219 135.671875 143.367188 C 136.210938 142.152344 137.414062 141.363281 138.738281 141.363281 C 140.066406 141.363281 141.269531 142.152344 141.808594 143.367188 C 142.953125 145.949219 145.085938 148.039062 147.65625 149.097656 C 150.558594 150.285156 154.089844 150.121094 156.875 148.660156 C 158.242188 147.949219 159.933594 148.46875 160.648438 149.835938 C 161.367188 151.207031 160.84375 152.898438 159.472656 153.617188 C 157.101562 154.863281 154.441406 155.492188 151.777344 155.492188 Z M 151.777344 155.492188 " fill-opacity="1" fill-rule="nonzero"/><path fill="#473a39" d="M 248.722656 288.945312 L 248.007812 283.394531 C 283.082031 278.863281 313.75 258.644531 332.144531 227.929688 C 353.929688 191.558594 354.785156 144.0625 334.324219 106.925781 C 327.851562 95.179688 320.644531 87.023438 312.285156 81.992188 C 302.195312 75.921875 290.382812 74.957031 281.445312 79.476562 C 266.050781 87.261719 262.691406 108.140625 266.085938 124.242188 C 268.035156 133.484375 271.71875 142.511719 275.285156 151.246094 C 278.492188 159.09375 281.804688 167.210938 283.953125 175.640625 C 292.699219 209.949219 280.203125 245.199219 254.234375 259.460938 L 251.546875 254.550781 C 275.308594 241.5 286.660156 208.894531 278.535156 177.023438 C 276.480469 168.972656 273.242188 161.035156 270.105469 153.359375 C 266.449219 144.398438 262.664062 135.128906 260.613281 125.394531 C 256.789062 107.265625 260.890625 83.597656 278.921875 74.480469 C 289.554688 69.097656 303.445312 70.140625 315.167969 77.199219 C 324.394531 82.75 332.261719 91.589844 339.222656 104.226562 C 360.628906 143.074219 359.730469 192.757812 336.945312 230.804688 C 317.664062 263 285.507812 284.195312 248.722656 288.945312 Z M 248.722656 288.945312 " fill-opacity="1" fill-rule="nonzero"/><path fill="#d5c1bc" d="M 79.230469 287.667969 C 79.230469 287.667969 93.632812 333.613281 113.1875 331.628906 C 132.746094 329.644531 131.421875 295.796875 131.421875 295.796875 C 131.421875 295.796875 124.289062 270.148438 79.230469 287.667969 Z M 79.230469 287.667969 " fill-opacity="1" fill-rule="nonzero"/><g clip-path="url(#2058c20728)"><path fill="#473a39" d="M 111.539062 335.050781 C 109.917969 335.050781 108.273438 334.796875 106.632812 334.238281 C 101.601562 332.527344 98.066406 328.429688 94.996094 324.253906 C 86.253906 312.371094 79.316406 299.300781 74.375 285.402344 C 73.855469 283.949219 74.617188 282.347656 76.070312 281.828125 C 77.523438 281.3125 79.128906 282.066406 79.644531 283.527344 C 84.40625 296.90625 91.085938 309.492188 99.5 320.9375 C 101.859375 324.140625 104.6875 327.664062 108.429688 328.9375 C 114.410156 330.976562 121.101562 326.519531 124.125 321.039062 C 127.578125 314.769531 127.886719 306.890625 128.160156 299.945312 C 128.21875 298.402344 129.570312 297.136719 131.0625 297.257812 C 132.605469 297.316406 133.808594 298.617188 133.746094 300.164062 C 133.453125 307.734375 133.117188 316.3125 129.019531 323.742188 C 125.683594 329.800781 118.878906 335.050781 111.539062 335.050781 Z M 111.539062 335.050781 " fill-opacity="1" fill-rule="nonzero"/></g><path fill="#d5c1bc" d="M 151.640625 299.765625 C 151.640625 299.765625 152.300781 335.265625 174.960938 332.917969 C 174.960938 332.917969 192.535156 325.09375 205.519531 284.464844 C 205.519531 284.464844 149.394531 273.78125 151.640625 299.765625 Z M 151.640625 299.765625 " fill-opacity="1" fill-rule="nonzero"/><g clip-path="url(#fd4b2ca339)"><path fill="#473a39" d="M 171.742188 335.050781 C 164.398438 335.050781 157.597656 329.800781 154.257812 323.742188 C 150.164062 316.3125 149.828125 307.734375 149.53125 300.164062 C 149.472656 298.617188 150.675781 297.316406 152.21875 297.257812 C 153.742188 297.136719 155.0625 298.398438 155.121094 299.945312 C 155.394531 306.890625 155.703125 314.769531 159.15625 321.039062 C 162.175781 326.519531 168.875 330.980469 174.847656 328.9375 C 178.589844 327.664062 181.421875 324.140625 183.777344 320.9375 C 192.195312 309.492188 198.875 296.90625 203.636719 283.527344 C 204.152344 282.066406 205.75 281.3125 207.207031 281.828125 C 208.664062 282.347656 209.421875 283.949219 208.902344 285.402344 C 203.960938 299.300781 197.023438 312.371094 188.28125 324.253906 C 185.210938 328.429688 181.675781 332.527344 176.648438 334.238281 C 175.007812 334.796875 173.363281 335.050781 171.742188 335.050781 Z M 171.742188 335.050781 " fill-opacity="1" fill-rule="nonzero"/></g></svg>